<svg width="34" height="42" viewBox="0 0 34 42" fill="none" xmlns="http://www.w3.org/2000/svg" xmlns:xlink="http://www.w3.org/1999/xlink">
<path d="M14.046,31.71L11.298,31.71C11.115,31.71 10.992,31.832 10.992,32.015C10.992,32.198 11.115,32.32 11.298,32.32L14.046,32.32C14.229,32.32 14.351,32.198 14.351,32.015C14.351,31.862 14.199,31.71 14.046,31.71Z" fill="#5D6679"/>
<path d="M31.355,1.693C30.455,0.793 29.26,0.298 27.987,0.298L5.132,0.298C3.859,0.298 2.665,0.793 1.765,1.692C0.865,2.592 0.37,3.787 0.37,5.06L0.37,35.536C0.37,36.809 0.865,38.003 1.765,38.903C2.664,39.803 3.859,40.298 5.132,40.298L27.99,40.298C29.263,40.298 30.457,39.803 31.358,38.903C32.257,38.004 32.752,36.809 32.752,35.536L32.752,5.06C32.75,3.788 32.255,2.592 31.355,1.693L31.355,1.693ZM30.846,35.537C30.846,37.113 29.565,38.394 27.989,38.394L5.132,38.394C3.556,38.394 2.275,37.113 2.275,35.537L2.275,5.06C2.275,3.484 3.556,2.203 5.132,2.203L27.989,2.203C29.565,2.203 30.846,3.484 30.846,5.06L30.846,35.537Z" fill="#5D6679"/>
<path d="M12.077,17.72L8.941,20.857L7.71,19.626C7.339,19.255 6.734,19.255 6.363,19.626C5.992,19.997 5.992,20.602 6.363,20.973L8.269,22.878C8.449,23.058 8.69,23.157 8.943,23.157C9.196,23.157 9.438,23.058 9.617,22.878L13.427,19.068C13.799,18.697 13.799,18.092 13.427,17.721C13.056,17.349 12.448,17.347 12.077,17.72L12.077,17.72Z" fill="#5D6679"/>
<path d="M12.077,27.242L8.941,30.378L7.71,29.148C7.339,28.776 6.734,28.776 6.363,29.148C5.992,29.519 5.992,30.123 6.363,30.494L8.269,32.4C8.449,32.579 8.69,32.679 8.943,32.679C9.196,32.679 9.438,32.579 9.617,32.4L13.427,28.589C13.799,28.218 13.799,27.614 13.427,27.243C13.056,26.871 12.448,26.871 12.077,27.242L12.077,27.242Z" fill="#5D6679"/>
<path d="M12.077,8.195L8.941,11.331L7.71,10.101C7.339,9.729 6.734,9.729 6.363,10.101C5.992,10.472 5.992,11.076 6.363,11.447L8.269,13.353C8.449,13.532 8.69,13.632 8.943,13.632C9.196,13.632 9.438,13.532 9.617,13.353L13.427,9.542C13.799,9.171 13.799,8.566 13.427,8.196C13.056,7.824 12.448,7.824 12.077,8.195L12.077,8.195Z" fill="#5D6679"/>
<path d="M26.085,19.346L16.561,19.346C16.034,19.346 15.609,19.773 15.609,20.298C15.609,20.823 16.036,21.25 16.561,21.25L26.085,21.25C26.611,21.25 27.037,20.823 27.037,20.298C27.037,19.771 26.61,19.346 26.085,19.346Z" fill="#5D6679"/>
<path d="M26.085,30.775L16.561,30.775C16.034,30.775 15.609,31.202 15.609,31.727C15.609,32.251 16.036,32.678 16.561,32.678L26.085,32.678C26.611,32.678 27.037,32.251 27.037,31.727C27.037,31.202 26.61,30.775 26.085,30.775Z" fill="#5D6679"/>
<path d="M26.085,9.821L16.561,9.821C16.034,9.821 15.609,10.248 15.609,10.773C15.609,11.298 16.036,11.725 16.561,11.725L26.085,11.725C26.611,11.725 27.037,11.298 27.037,10.773C27.037,10.248 26.61,9.821 26.085,9.821Z" fill="#5D6679"/>
<path d="M14.046,33.846L11.298,33.846C11.115,33.846 10.992,33.969 10.992,34.152C10.992,34.335 11.115,34.457 11.298,34.457L14.046,34.457C14.229,34.457 14.351,34.335 14.351,34.152C14.351,33.969 14.199,33.846 14.046,33.846Z" fill="#5D6679"/>
</svg>
