<svg width="40" height="40" viewBox="0 0 40 40" fill="none" xmlns="http://www.w3.org/2000/svg" xmlns:xlink="http://www.w3.org/1999/xlink">
<path d="M32.333,25L33.431,25.485L33.436,25.473L32.333,25ZM32.883,28.033L32.026,28.873L32.035,28.882L32.883,28.033ZM32.983,28.133L32.135,28.982L32.135,28.982L32.983,28.133ZM32.983,32.85L32.135,32.001L32.134,32.002L32.983,32.85ZM28.267,32.85L29.116,32.002L29.115,32.002L28.267,32.85ZM28.167,32.75L29.015,31.902L29.006,31.892L28.167,32.75ZM25.133,32.2L25.606,33.303L25.618,33.298L25.133,32.2ZM23.467,34.717L22.267,34.712L22.267,34.717L23.467,34.717ZM16.8,34.85L18,34.85L18,34.822L16.8,34.85ZM15,32.333L14.516,33.431C14.539,33.442 14.562,33.451 14.586,33.46L15,32.333ZM11.967,32.883L11.128,32.026L11.118,32.035L11.967,32.883ZM11.867,32.983L11.018,32.135L11.018,32.135L11.867,32.983ZM7.15,32.983L7.999,32.135L7.998,32.134L7.15,32.983ZM6.172,30.625L7.372,30.625L6.172,30.625ZM7.15,28.267L7.998,29.116L7.999,29.115L7.15,28.267ZM7.25,28.167L8.099,29.015L8.108,29.006L7.25,28.167ZM7.8,25.133L6.697,25.606L6.702,25.618L7.8,25.133ZM5.283,23.467L5.288,22.267L5.283,22.267L5.283,23.467ZM1.667,20.133L0.467,20.133L1.667,20.133ZM5,16.8L5,18L5,16.8ZM5.15,16.8L5.15,18L5.178,18L5.15,16.8ZM7.667,15L6.569,14.516C6.559,14.539 6.549,14.562 6.541,14.586L7.667,15ZM7.117,11.967L7.975,11.128L7.965,11.118L7.117,11.967ZM7.017,11.867L7.865,11.018L7.865,11.018L7.017,11.867ZM7.017,7.15L7.865,7.999L7.866,7.998L7.017,7.15ZM11.733,7.15L10.884,7.998L10.885,7.999L11.733,7.15ZM11.833,7.25L10.985,8.099L10.994,8.108L11.833,7.25ZM14.867,7.8L14.867,6.6C14.7,6.6 14.535,6.635 14.382,6.702L14.867,7.8ZM15,7.8L15,9C15.163,9 15.323,8.967 15.473,8.903L15,7.8ZM16.667,5.283L17.867,5.288L17.867,5.283L16.667,5.283ZM20,1.667L20,0.467L20,1.667ZM23.333,5.15L22.133,5.15L22.133,5.155L23.333,5.15ZM25,7.667L25.485,6.569L25.473,6.564L25,7.667ZM28.033,7.117L28.873,7.975L28.882,7.965L28.033,7.117ZM28.133,7.017L28.982,7.865L28.982,7.865L28.133,7.017ZM30.492,6.039L30.492,7.239L30.492,6.039ZM32.85,7.017L32.001,7.865L32.002,7.866L32.85,7.017ZM32.85,11.733L32.002,10.884L32.002,10.885L32.85,11.733ZM32.75,11.833L31.902,10.985L31.892,10.994L32.75,11.833ZM32.2,14.867L33.4,14.867C33.4,14.7 33.365,14.535 33.298,14.382L32.2,14.867ZM32.2,15L31,15C31,15.163 31.033,15.323 31.097,15.473L32.2,15ZM34.717,16.667L34.712,17.867L34.717,17.867L34.717,16.667ZM34.85,23.333L34.85,22.133L34.845,22.133L34.85,23.333ZM23.8,20C23.8,22.099 22.099,23.8 20,23.8L20,26.2C23.424,26.2 26.2,23.424 26.2,20L23.8,20ZM20,23.8C17.901,23.8 16.2,22.099 16.2,20L13.8,20C13.8,23.424 16.576,26.2 20,26.2L20,23.8ZM16.2,20C16.2,17.901 17.901,16.2 20,16.2L20,13.8C16.576,13.8 13.8,16.576 13.8,20L16.2,20ZM20,16.2C22.099,16.2 23.8,17.901 23.8,20L26.2,20C26.2,16.576 23.424,13.8 20,13.8L20,16.2ZM31.236,24.516C30.917,25.238 30.822,26.039 30.963,26.815L33.324,26.387C33.269,26.082 33.306,25.768 33.431,25.485L31.236,24.516ZM30.963,26.815C31.104,27.592 31.474,28.308 32.026,28.873L33.741,27.194C33.525,26.973 33.379,26.692 33.324,26.387L30.963,26.815ZM32.035,28.882L32.135,28.982L33.832,27.285L33.732,27.185L32.035,28.882ZM32.135,28.982C32.334,29.181 32.491,29.416 32.598,29.675L34.816,28.756C34.587,28.205 34.253,27.705 33.832,27.284L32.135,28.982ZM32.598,29.675C32.706,29.934 32.761,30.211 32.761,30.492L35.161,30.492C35.161,29.896 35.044,29.306 34.816,28.756L32.598,29.675ZM32.761,30.492C32.761,30.772 32.706,31.05 32.598,31.309L34.816,32.228C35.044,31.677 35.161,31.088 35.161,30.492L32.761,30.492ZM32.598,31.309C32.491,31.568 32.334,31.803 32.135,32.001L33.832,33.699C34.253,33.278 34.587,32.778 34.816,32.228L32.598,31.309ZM32.134,32.002C31.936,32.2 31.701,32.358 31.442,32.465L32.361,34.682C32.911,34.454 33.411,34.12 33.832,33.698L32.134,32.002ZM31.442,32.465C31.183,32.572 30.905,32.628 30.625,32.628L30.625,35.028C31.221,35.028 31.811,34.91 32.361,34.682L31.442,32.465ZM30.625,32.628C30.345,32.628 30.067,32.572 29.808,32.465L28.889,34.682C29.439,34.91 30.029,35.028 30.625,35.028L30.625,32.628ZM29.808,32.465C29.549,32.358 29.314,32.2 29.116,32.002L27.418,33.698C27.839,34.12 28.339,34.454 28.889,34.682L29.808,32.465ZM29.115,32.002L29.015,31.902L27.318,33.599L27.418,33.699L29.115,32.002ZM29.006,31.892C28.442,31.34 27.725,30.97 26.949,30.829L26.52,33.191C26.825,33.246 27.106,33.391 27.328,33.608L29.006,31.892ZM26.949,30.829C26.172,30.689 25.371,30.784 24.649,31.102L25.618,33.298C25.901,33.173 26.216,33.136 26.52,33.191L26.949,30.829ZM24.661,31.097C23.953,31.401 23.349,31.905 22.923,32.547L24.924,33.872C25.091,33.62 25.328,33.422 25.606,33.303L24.661,31.097ZM22.923,32.547C22.498,33.189 22.27,33.942 22.267,34.712L24.667,34.722C24.668,34.419 24.758,34.124 24.924,33.872L22.923,32.547ZM22.267,34.717L22.267,35L24.667,35L24.667,34.717L22.267,34.717ZM22.267,35C22.267,35.566 22.042,36.109 21.642,36.509L23.339,38.206C24.189,37.356 24.667,36.202 24.667,35L22.267,35ZM21.642,36.509C21.242,36.909 20.699,37.133 20.133,37.133L20.133,39.533C21.336,39.533 22.489,39.056 23.339,38.206L21.642,36.509ZM20.133,37.133C19.568,37.133 19.025,36.909 18.625,36.509L16.928,38.206C17.778,39.056 18.931,39.533 20.133,39.533L20.133,37.133ZM18.625,36.509C18.225,36.109 18,35.566 18,35L15.6,35C15.6,36.202 16.078,37.356 16.928,38.206L18.625,36.509ZM18,35L18,34.85L15.6,34.85L15.6,35L18,35ZM18,34.822C17.981,34.03 17.725,33.261 17.264,32.617L15.312,34.013C15.492,34.266 15.593,34.567 15.6,34.878L18,34.822ZM17.264,32.617C16.803,31.972 16.158,31.481 15.414,31.207L14.586,33.46C14.878,33.567 15.131,33.76 15.312,34.013L17.264,32.617ZM15.485,31.236C14.763,30.917 13.962,30.822 13.185,30.963L13.613,33.324C13.918,33.269 14.232,33.306 14.516,33.431L15.485,31.236ZM13.185,30.963C12.408,31.104 11.692,31.474 11.128,32.026L12.806,33.741C13.027,33.525 13.308,33.379 13.613,33.324L13.185,30.963ZM11.118,32.035L11.018,32.135L12.715,33.832L12.815,33.732L11.118,32.035ZM11.018,32.135C10.82,32.334 10.584,32.491 10.325,32.598L11.244,34.816C11.795,34.587 12.295,34.253 12.716,33.832L11.018,32.135ZM10.325,32.598C10.066,32.706 9.789,32.761 9.508,32.761L9.508,35.161C10.104,35.161 10.694,35.044 11.244,34.816L10.325,32.598ZM9.508,32.761C9.228,32.761 8.95,32.706 8.691,32.598L7.772,34.816C8.323,35.044 8.913,35.161 9.508,35.161L9.508,32.761ZM8.691,32.598C8.432,32.491 8.197,32.334 7.999,32.135L6.301,33.832C6.722,34.253 7.222,34.587 7.772,34.816L8.691,32.598ZM7.998,32.134C7.8,31.936 7.642,31.701 7.535,31.442L5.318,32.361C5.546,32.911 5.881,33.411 6.302,33.832L7.998,32.134ZM7.535,31.442C7.428,31.183 7.372,30.905 7.372,30.625L4.972,30.625C4.972,31.221 5.09,31.811 5.318,32.361L7.535,31.442ZM7.372,30.625C7.372,30.345 7.428,30.067 7.535,29.808L5.318,28.889C5.09,29.439 4.972,30.029 4.972,30.625L7.372,30.625ZM7.535,29.808C7.642,29.549 7.8,29.314 7.998,29.116L6.302,27.418C5.881,27.839 5.546,28.339 5.318,28.889L7.535,29.808ZM7.999,29.115L8.099,29.015L6.402,27.318L6.302,27.418L7.999,29.115ZM8.108,29.006C8.66,28.442 9.03,27.725 9.171,26.949L6.809,26.52C6.754,26.825 6.609,27.106 6.392,27.328L8.108,29.006ZM9.171,26.949C9.312,26.172 9.217,25.371 8.898,24.649L6.702,25.618C6.827,25.901 6.865,26.216 6.809,26.52L9.171,26.949ZM8.903,24.661C8.6,23.953 8.096,23.349 7.453,22.923L6.128,24.924C6.38,25.091 6.578,25.328 6.697,25.606L8.903,24.661ZM7.453,22.923C6.811,22.498 6.059,22.27 5.288,22.267L5.279,24.667C5.581,24.668 5.876,24.758 6.128,24.924L7.453,22.923ZM5.283,22.267L5,22.267L5,24.667L5.283,24.667L5.283,22.267ZM5,22.267C4.434,22.267 3.892,22.042 3.492,21.642L1.795,23.339C2.645,24.189 3.798,24.667 5,24.667L5,22.267ZM3.492,21.642C3.092,21.242 2.867,20.699 2.867,20.133L0.467,20.133C0.467,21.336 0.944,22.489 1.795,23.339L3.492,21.642ZM2.867,20.133C2.867,19.568 3.092,19.025 3.492,18.625L1.795,16.928C0.944,17.778 0.467,18.931 0.467,20.133L2.867,20.133ZM3.492,18.625C3.892,18.225 4.434,18 5,18L5,15.6C3.798,15.6 2.645,16.078 1.795,16.928L3.492,18.625ZM5,18L5.15,18L5.15,15.6L5,15.6L5,18ZM5.178,18C5.971,17.981 6.739,17.725 7.384,17.264L5.987,15.312C5.735,15.492 5.433,15.593 5.122,15.6L5.178,18ZM7.384,17.264C8.028,16.803 8.519,16.158 8.793,15.414L6.541,14.586C6.433,14.878 6.24,15.131 5.987,15.312L7.384,17.264ZM8.765,15.485C9.083,14.763 9.178,13.962 9.038,13.185L6.676,13.613C6.731,13.918 6.694,14.232 6.569,14.516L8.765,15.485ZM9.038,13.185C8.897,12.408 8.526,11.692 7.975,11.128L6.259,12.806C6.475,13.027 6.621,13.308 6.676,13.613L9.038,13.185ZM7.965,11.118L7.865,11.018L6.168,12.715L6.268,12.815L7.965,11.118ZM7.865,11.018C7.666,10.82 7.509,10.584 7.402,10.325L5.185,11.244C5.413,11.795 5.747,12.295 6.169,12.716L7.865,11.018ZM7.402,10.325C7.294,10.066 7.239,9.789 7.239,9.508L4.839,9.508C4.839,10.104 4.957,10.694 5.185,11.244L7.402,10.325ZM7.239,9.508C7.239,9.228 7.294,8.95 7.402,8.691L5.185,7.772C4.957,8.323 4.839,8.913 4.839,9.508L7.239,9.508ZM7.402,8.691C7.509,8.432 7.666,8.197 7.865,7.999L6.169,6.301C5.747,6.722 5.413,7.222 5.185,7.772L7.402,8.691ZM7.866,7.998C8.064,7.8 8.299,7.642 8.558,7.535L7.639,5.318C7.089,5.546 6.589,5.881 6.168,6.302L7.866,7.998ZM8.558,7.535C8.817,7.428 9.095,7.372 9.375,7.372L9.375,4.972C8.779,4.972 8.189,5.09 7.639,5.318L8.558,7.535ZM9.375,7.372C9.655,7.372 9.933,7.428 10.192,7.535L11.111,5.318C10.561,5.09 9.971,4.972 9.375,4.972L9.375,7.372ZM10.192,7.535C10.451,7.642 10.686,7.8 10.884,7.998L12.582,6.302C12.161,5.881 11.661,5.546 11.111,5.318L10.192,7.535ZM10.885,7.999L10.985,8.099L12.682,6.402L12.582,6.302L10.885,7.999ZM10.994,8.108C11.558,8.66 12.275,9.03 13.052,9.171L13.48,6.809C13.175,6.754 12.894,6.609 12.673,6.392L10.994,8.108ZM13.052,9.171C13.828,9.312 14.629,9.217 15.351,8.898L14.382,6.702C14.099,6.827 13.785,6.865 13.48,6.809L13.052,9.171ZM14.867,9L15,9L15,6.6L14.867,6.6L14.867,9ZM15.473,8.903C16.181,8.6 16.785,8.096 17.21,7.453L15.209,6.128C15.042,6.38 14.805,6.578 14.527,6.697L15.473,8.903ZM17.21,7.453C17.635,6.811 17.864,6.059 17.867,5.288L15.467,5.279C15.466,5.581 15.376,5.876 15.209,6.128L17.21,7.453ZM17.867,5.283L17.867,5L15.467,5L15.467,5.283L17.867,5.283ZM17.867,5C17.867,4.434 18.092,3.892 18.492,3.492L16.795,1.795C15.944,2.645 15.467,3.798 15.467,5L17.867,5ZM18.492,3.492C18.892,3.092 19.434,2.867 20,2.867L20,0.467C18.798,0.467 17.645,0.944 16.795,1.795L18.492,3.492ZM20,2.867C20.566,2.867 21.108,3.092 21.509,3.492L23.206,1.795C22.356,0.944 21.202,0.467 20,0.467L20,2.867ZM21.509,3.492C21.909,3.892 22.133,4.434 22.133,5L24.533,5C24.533,3.798 24.056,2.645 23.206,1.795L21.509,3.492ZM22.133,5L22.133,5.15L24.533,5.15L24.533,5L22.133,5ZM22.133,5.155C22.137,5.925 22.365,6.678 22.79,7.32L24.791,5.995C24.624,5.743 24.535,5.448 24.533,5.145L22.133,5.155ZM22.79,7.32C23.215,7.962 23.819,8.466 24.527,8.77L25.473,6.564C25.195,6.445 24.958,6.247 24.791,5.995L22.79,7.32ZM24.516,8.765C25.238,9.083 26.039,9.178 26.815,9.038L26.387,6.676C26.082,6.731 25.768,6.694 25.485,6.569L24.516,8.765ZM26.815,9.038C27.592,8.897 28.308,8.526 28.873,7.975L27.194,6.259C26.973,6.475 26.692,6.621 26.387,6.676L26.815,9.038ZM28.882,7.965L28.982,7.865L27.285,6.168L27.185,6.268L28.882,7.965ZM28.982,7.865C29.181,7.666 29.416,7.509 29.675,7.402L28.756,5.185C28.205,5.413 27.705,5.747 27.284,6.169L28.982,7.865ZM29.675,7.402C29.934,7.294 30.211,7.239 30.492,7.239L30.492,4.839C29.896,4.839 29.306,4.957 28.756,5.185L29.675,7.402ZM30.492,7.239C30.772,7.239 31.05,7.294 31.309,7.402L32.228,5.185C31.677,4.957 31.088,4.839 30.492,4.839L30.492,7.239ZM31.309,7.402C31.568,7.509 31.803,7.666 32.001,7.865L33.699,6.169C33.278,5.747 32.778,5.413 32.228,5.185L31.309,7.402ZM32.002,7.866C32.2,8.064 32.358,8.299 32.465,8.558L34.682,7.639C34.454,7.089 34.12,6.589 33.698,6.168L32.002,7.866ZM32.465,8.558C32.572,8.817 32.628,9.095 32.628,9.375L35.028,9.375C35.028,8.779 34.91,8.189 34.682,7.639L32.465,8.558ZM32.628,9.375C32.628,9.655 32.572,9.933 32.465,10.192L34.682,11.111C34.91,10.561 35.028,9.971 35.028,9.375L32.628,9.375ZM32.465,10.192C32.358,10.451 32.2,10.686 32.002,10.884L33.698,12.582C34.12,12.161 34.454,11.661 34.682,11.111L32.465,10.192ZM32.002,10.885L31.902,10.985L33.599,12.682L33.699,12.582L32.002,10.885ZM31.892,10.994C31.34,11.559 30.97,12.275 30.829,13.052L33.191,13.48C33.246,13.175 33.391,12.894 33.608,12.673L31.892,10.994ZM30.829,13.052C30.689,13.828 30.784,14.629 31.102,15.351L33.298,14.382C33.173,14.099 33.136,13.785 33.191,13.48L30.829,13.052ZM31,14.867L31,15L33.4,15L33.4,14.867L31,14.867ZM31.097,15.473C31.401,16.181 31.905,16.785 32.547,17.21L33.872,15.209C33.62,15.042 33.422,14.805 33.303,14.527L31.097,15.473ZM32.547,17.21C33.189,17.635 33.942,17.864 34.712,17.867L34.722,15.467C34.419,15.466 34.124,15.376 33.872,15.209L32.547,17.21ZM34.717,17.867L35,17.867L35,15.467L34.717,15.467L34.717,17.867ZM35,17.867C35.566,17.867 36.109,18.092 36.509,18.492L38.206,16.795C37.356,15.944 36.202,15.467 35,15.467L35,17.867ZM36.509,18.492C36.909,18.892 37.133,19.434 37.133,20L39.533,20C39.533,18.798 39.056,17.645 38.206,16.795L36.509,18.492ZM37.133,20C37.133,20.566 36.909,21.108 36.509,21.509L38.206,23.206C39.056,22.356 39.533,21.202 39.533,20L37.133,20ZM36.509,21.509C36.109,21.909 35.566,22.133 35,22.133L35,24.533C36.202,24.533 37.356,24.056 38.206,23.206L36.509,21.509ZM35,22.133L34.85,22.133L34.85,24.533L35,24.533L35,22.133ZM34.845,22.133C34.075,22.137 33.322,22.365 32.68,22.79L34.005,24.791C34.257,24.624 34.553,24.535 34.855,24.533L34.845,22.133ZM32.68,22.79C32.038,23.215 31.534,23.819 31.23,24.527L33.436,25.473C33.556,25.195 33.753,24.958 34.005,24.791L32.68,22.79Z" fill="#5D6679"/>
</svg>
