<svg width="40" height="40" viewBox="0 0 40 40" fill="none" xmlns="http://www.w3.org/2000/svg" xmlns:xlink="http://www.w3.org/1999/xlink">
<path d="M36.904,17.843L35.815,18.875L36.904,17.843ZM3.5,34L3.5,20.594L0.5,20.594L0.5,34L3.5,34ZM36.5,20.594L36.5,34L39.5,34L39.5,20.594L36.5,20.594ZM4.185,18.875L18.185,4.097L16.007,2.034L2.007,16.811L4.185,18.875ZM21.815,4.097L35.815,18.875L37.993,16.811L23.993,2.034L21.815,4.097ZM16,36.5L6,36.5L6,39.5L16,39.5L16,36.5ZM17.5,38L17.5,27L14.5,27L14.5,38L17.5,38ZM17,27.5L23,27.5L23,24.5L17,24.5L17,27.5ZM34,36.5L24,36.5L24,39.5L34,39.5L34,36.5ZM24,36.5L16,36.5L16,39.5L24,39.5L24,36.5ZM22.5,27L22.5,38L25.5,38L25.5,27L22.5,27ZM23,27.5C22.724,27.5 22.5,27.276 22.5,27L25.5,27C25.5,25.619 24.381,24.5 23,24.5L23,27.5ZM17.5,27C17.5,27.276 17.276,27.5 17,27.5L17,24.5C15.619,24.5 14.5,25.619 14.5,27L17.5,27ZM18.185,4.097C19.171,3.056 20.829,3.056 21.815,4.097L23.993,2.034C21.823,-0.256 18.177,-0.256 16.007,2.034L18.185,4.097ZM39.5,20.594C39.5,19.187 38.961,17.833 37.993,16.811L35.815,18.875C36.255,19.339 36.5,19.954 36.5,20.594L39.5,20.594ZM0.5,34C0.5,37.038 2.962,39.5 6,39.5L6,36.5C4.619,36.5 3.5,35.381 3.5,34L0.5,34ZM36.5,34C36.5,35.381 35.381,36.5 34,36.5L34,39.5C37.038,39.5 39.5,37.038 39.5,34L36.5,34ZM3.5,20.594C3.5,19.954 3.745,19.339 4.185,18.875L2.007,16.811C1.039,17.833 0.5,19.187 0.5,20.594L3.5,20.594Z" fill="#1570EF"/>
</svg>
