<svg width="48" height="50" viewBox="0 0 48 50" fill="none" xmlns="http://www.w3.org/2000/svg" xmlns:xlink="http://www.w3.org/1999/xlink">
<path d="M47.532,24.553C47.532,22.921 47.4,21.281 47.118,19.676L24.48,19.676L24.48,28.918L37.443,28.918C36.906,31.899 35.177,34.536 32.646,36.211L32.646,42.208L40.38,42.208C44.922,38.028 47.532,31.855 47.532,24.553Z" fill="#4285F4"/>
<path d="M24.48,48.002C30.953,48.002 36.412,45.876 40.389,42.208L32.655,36.211C30.503,37.675 27.725,38.504 24.489,38.504C18.228,38.504 12.919,34.28 11.014,28.601L3.033,28.601L3.033,34.782C7.107,42.887 15.406,48.002 24.48,48.002L24.48,48.002Z" fill="#34A853"/>
<path d="M11.005,28.601C10,25.62 10,22.392 11.005,19.411L11.005,13.23L3.033,13.23C-0.371,20.011 -0.371,28.001 3.033,34.782L11.005,28.601L11.005,28.601Z" fill="#FBBC04"/>
<path d="M24.48,9.499C27.902,9.446 31.209,10.734 33.687,13.097L40.539,6.245C36.2,2.171 30.441,-0.069 24.48,0.002C15.406,0.002 7.107,5.116 3.033,13.23L11.005,19.411C12.901,13.723 18.219,9.499 24.48,9.499L24.48,9.499Z" fill="#EA4335"/>
</svg>
