<svg width="40" height="40" viewBox="0 0 40 40" fill="none" xmlns="http://www.w3.org/2000/svg" xmlns:xlink="http://www.w3.org/1999/xlink">
<path d="M28.889,37.778L28.889,21.608C28.889,21.002 29.404,20.51 30,20.51C30.614,20.51 31.111,20.989 31.111,21.608L31.111,37.778L33.35,37.778C35.778,37.778 37.778,35.784 37.778,33.35L37.778,6.65C37.778,4.222 35.784,2.222 33.35,2.222L6.65,2.222C4.222,2.222 2.222,4.216 2.222,6.65L2.222,33.35C2.222,35.778 4.216,37.778 6.65,37.778L8.889,37.778L8.889,27.181C8.889,26.555 9.404,26.048 10,26.048C10.614,26.048 11.111,26.541 11.111,27.181L11.111,37.778L15.556,37.778L15.556,16.076C15.556,15.467 16.071,14.973 16.667,14.973C17.281,14.973 17.778,15.448 17.778,16.076L17.778,37.778L22.222,37.778L22.222,7.772C22.222,7.162 22.738,6.667 23.334,6.667C23.947,6.667 24.445,7.162 24.445,7.772L24.445,37.778L28.889,37.778ZM0,6.65C0,2.977 3.006,0 6.65,0L33.35,0C37.023,0 40,3.006 40,6.65L40,33.35C40,37.023 36.994,40 33.35,40L6.65,40C2.977,40 0,36.994 0,33.35L0,6.65Z" fill="#5D6679"/>
</svg>
