<svg width="34" height="42" viewBox="0 0 34 42" fill="none" xmlns="http://www.w3.org/2000/svg" xmlns:xlink="http://www.w3.org/1999/xlink">
<path d="M17.13,39.291L2.189,39.291C1.693,39.291 1.29,38.88 1.29,38.374L1.29,2.227C1.29,1.721 1.694,1.31 2.189,1.31L17.13,1.31C17.486,1.31 17.775,1.016 17.775,0.655C17.775,0.293 17.486,0 17.13,0L2.189,0C0.982,0 0,0.999 0,2.227L0,38.374C0,39.601 0.982,40.601 2.189,40.601L17.13,40.601C17.486,40.601 17.775,40.307 17.775,39.946C17.775,39.584 17.487,39.291 17.13,39.291L17.13,39.291ZM32.3,19.837L23.449,10.854C23.197,10.599 22.789,10.599 22.537,10.854C22.284,11.11 22.285,11.525 22.537,11.781L30.287,19.645L9.225,19.645C8.869,19.645 8.58,19.939 8.58,20.3C8.58,20.662 8.869,20.955 9.225,20.955L30.287,20.955L22.537,28.821C22.285,29.076 22.285,29.491 22.537,29.747C22.663,29.875 22.827,29.939 22.993,29.939C23.158,29.939 23.323,29.875 23.449,29.747L32.299,20.764C32.42,20.642 32.488,20.475 32.488,20.301C32.489,20.127 32.421,19.96 32.3,19.837L32.3,19.837Z" fill="#5D6679" stroke="#5D6679" stroke-width="0.1" stroke-miterlimit="3.999327"/>
</svg>
