<svg width="40" height="40" viewBox="0 0 40 40" fill="none" xmlns="http://www.w3.org/2000/svg" xmlns:xlink="http://www.w3.org/1999/xlink">
<path d="M20,0C8.972,0 0,8.973 0,20C0,24.931 1.797,29.447 4.766,32.937C4.804,32.995 4.847,33.051 4.898,33.102C4.91,33.113 4.923,33.121 4.934,33.131C8.603,37.336 13.995,40 20,40C26.005,40 31.396,37.336 35.066,33.131C35.077,33.121 35.091,33.113 35.102,33.102C35.153,33.051 35.197,32.995 35.234,32.937C38.203,29.446 40,24.93 40,20C40,8.973 31.028,0 20,0L20,0ZM20,38C14.888,38 10.271,35.855 6.992,32.422L8.362,31.052C9.685,29.729 11.445,29 13.315,29L26.685,29C28.555,29 30.314,29.729 31.638,31.052L33.008,32.422C29.728,35.855 25.111,38 20,38L20,38ZM34.312,30.898L33.052,29.638C31.351,27.937 29.09,27 26.685,27L13.315,27C10.91,27 8.649,27.937 6.948,29.638L5.688,30.898C3.377,27.871 2,24.094 2,20C2,10.076 10.074,2.001 20,2.001C29.925,2.001 38,10.075 38,20C38,24.094 36.623,27.871 34.312,30.898L34.312,30.898ZM20,9.001C15.589,9.001 12,12.589 12,17.001C12,21.411 15.589,25.001 20,25.001C24.411,25.001 28,21.412 28,17.001C28,12.589 24.411,9.001 20,9.001ZM20,23C16.691,23 14,20.309 14,17.001C14,13.692 16.691,11.001 20,11.001C23.308,11.001 26,13.692 26,17.001C26,20.309 23.308,23 20,23Z" fill="#5D6679"/>
</svg>
