<svg width="40" height="38" viewBox="0 0 40 38" fill="none" xmlns="http://www.w3.org/2000/svg" xmlns:xlink="http://www.w3.org/1999/xlink">
<path d="M10.519,36.617C10.618,36.716 10.716,36.765 10.865,36.765L39.506,36.765C39.802,36.765 40,36.568 40,36.271L40,7.63C40,7.432 39.901,7.284 39.753,7.235L26.42,-0.667C26.37,-0.765 26.271,-0.765 26.173,-0.765L0.494,-0.765C0.198,-0.765 0,-0.568 0,-0.271L0,25.407C0,25.555 0.049,25.654 0.148,25.753L10.519,36.617ZM39.012,35.777L11.358,35.777L11.358,8.123L21.235,8.123L21.235,15.531C21.235,15.827 21.432,16.025 21.729,16.025L28.148,16.025C28.444,16.025 28.642,15.827 28.642,15.531L28.642,8.123L39.012,8.123L39.012,35.777ZM22.222,15.037L22.222,8.124L27.654,8.124L27.654,15.037L22.222,15.037ZM26.025,0.222L37.679,7.136L28.79,7.136L18.42,0.222L26.025,0.222ZM16.642,0.222L27.012,7.136L21.876,7.136L11.506,0.223L16.642,0.222ZM9.728,0.222L20.099,7.136L11.012,7.136L1.976,0.222L9.728,0.222ZM0.988,0.716L10.371,7.877L10.371,35.037L0.988,25.21L0.988,0.716Z" fill="#5D6679" stroke="#5D6679" stroke-width="0.2" stroke-miterlimit="3.999327"/>
</svg>
