<svg width="42" height="38" viewBox="0 0 42 38" fill="none" xmlns="http://www.w3.org/2000/svg" xmlns:xlink="http://www.w3.org/1999/xlink">
<path d="M39.924,25.152L39.043,21.908C38.95,21.537 38.579,21.352 38.209,21.445L34.825,22.325L31.117,8.56C31.025,8.189 30.654,8.004 30.283,8.096L23.006,10.043L21.014,2.674C20.921,2.303 20.55,2.118 20.18,2.21L10.817,4.666L9.612,0.171C9.519,-0.2 9.149,-0.385 8.824,-0.293L1.362,1.561C0.389,1.839 -0.213,2.812 0.065,3.786C0.343,4.759 1.362,5.315 2.289,5.083L6.182,4.11L14.2,33.633C14.293,34.004 14.664,34.19 15.035,34.097L17.074,33.541C18.047,35.627 20.457,36.785 22.775,36.136C25.092,35.534 26.575,33.355 26.39,31.038L38.348,27.886C39.553,27.656 40.248,26.358 39.924,25.153L39.924,25.152ZM33.574,22.696L16.935,27.099L13.366,13.983L30.005,9.58L33.574,22.696ZM19.901,3.647L21.709,10.367L12.995,12.685L11.188,5.964L19.901,3.647ZM15.313,32.661L7.294,3.184C7.202,2.905 6.924,2.674 6.645,2.674L6.506,2.674L1.964,3.786C1.316,3.971 1.084,2.998 1.686,2.813L8.5,1.098L15.823,28.072C15.915,28.443 16.286,28.628 16.657,28.536L17.908,28.211C16.842,29.324 16.425,30.9 16.657,32.336L15.313,32.661ZM22.404,34.932C20.55,35.442 18.65,34.422 18.094,32.614C17.491,30.668 18.604,28.675 20.55,28.165C22.59,27.609 24.583,28.953 24.953,30.807C25.37,32.707 24.165,34.422 22.404,34.932L22.404,34.932ZM37.977,26.682L26.066,29.833C25.556,28.443 24.351,27.331 22.914,26.913C27.456,25.708 33.25,24.179 37.931,22.927L38.626,25.523C38.765,26.033 38.487,26.543 37.977,26.682L37.977,26.682Z" fill="#5D6679" stroke="#5D6679" stroke-width="0.1" stroke-miterlimit="3.999327"/>
</svg>
